<?xml version="1.0" standalone="no"?>
<!DOCTYPE svg PUBLIC "-//W3C//DTD SVG 20010904//EN"
 "http://www.w3.org/TR/2001/REC-SVG-20010904/DTD/svg10.dtd">
<svg version="1.0" xmlns="http://www.w3.org/2000/svg"
 width="162.000000pt" height="162.000000pt" viewBox="0 0 162.000000 162.000000"
 preserveAspectRatio="xMidYMid meet">
<metadata>
Created by potrace 1.11, written by Peter Selinger 2001-2013
</metadata>
<g transform="translate(0.000000,162.000000) scale(0.100000,-0.100000)"
fill="#000000" stroke="none">
<path d="M1235 1360 c-254 -5 -261 -6 -292 -29 -30 -22 -31 -26 -26 -77 l6
-54 -47 0 c-39 0 -52 -5 -79 -32 l-33 -33 5 -95 6 -95 80 0 80 0 6 -48 5 -49
-30 7 c-113 23 -156 15 -156 -29 0 -17 10 -30 33 -44 29 -17 39 -34 70 -121
21 -57 37 -107 37 -112 0 -5 -11 -9 -24 -9 -14 0 -38 -12 -56 -26 l-31 -26 3
-102 3 -101 241 -3 241 -2 37 46 c27 36 36 57 36 87 l0 39 60 -4 c59 -4 61 -3
85 28 24 31 25 39 24 156 -1 68 -4 150 -8 183 l-6 60 -75 5 -75 5 -3 73 c-3
69 -4 73 -30 83 -17 7 -73 8 -153 4 l-126 -7 -5 32 -5 33 181 -5 c238 -7 244
-6 280 43 26 38 28 45 25 124 -2 46 -8 88 -14 92 -5 4 -127 6 -270 3z m222
-39 l31 -1 -1 -57 -2 -58 -225 0 -225 0 -6 55 c-3 30 -5 57 -3 60 2 5 323 5
431 1z m-463 -113 c-3 -5 -14 -8 -25 -8 -16 0 -19 7 -19 50 0 36 5 52 18 59
15 9 18 4 24 -42 3 -28 4 -55 2 -59z m1 -101 l0 -62 -62 -3 -63 -3 0 66 0 65
63 0 62 0 0 -63z m461 38 c-12 -18 -25 -20 -142 -21 -71 0 -164 2 -206 4 -70
3 -78 6 -78 23 0 19 7 20 220 17 217 -3 219 -3 206 -23z m-617 -49 c-1 -50 -5
-68 -20 -82 -19 -17 -19 -15 -19 54 0 57 3 73 18 81 9 6 18 11 19 11 1 0 2
-29 2 -64z m108 -106 c-24 -19 -35 -21 -75 -15 -38 6 -44 9 -31 18 9 7 42 13
75 15 l58 3 -27 -21z m357 14 c12 -5 16 -20 16 -60 l0 -54 -42 -2 c-135 -6
-169 -3 -186 16 -16 18 -16 18 25 11 93 -15 171 17 140 59 -10 13 -33 16 -117
18 -64 1 -93 5 -75 9 39 9 218 11 239 3z m-303 -105 c9 -18 7 -25 -10 -42
l-21 -21 0 42 c0 46 13 54 31 21z m244 -49 l30 -1 -28 -24 c-37 -33 -80 -33
-101 -1 -15 24 -15 25 12 28 15 2 34 3 42 2 8 -2 29 -3 45 -4z m-189 -28 c-9
-9 -37 8 -31 18 5 8 11 7 21 -1 8 -6 12 -14 10 -17z m418 12 c3 -9 6 -77 6
-153 l0 -137 -65 -1 -65 -1 0 154 0 154 59 0 c44 0 60 -4 65 -16z m-155 -170
c0 -64 -4 -116 -9 -119 -6 -4 -19 -3 -30 0 -18 6 -20 15 -20 123 0 106 2 118
22 139 l23 24 7 -27 c4 -14 7 -77 7 -140z m-314 95 c68 -17 94 -29 130 -61 46
-40 70 -44 82 -12 3 9 -1 31 -10 50 -14 27 -14 34 -3 34 19 0 26 -32 26 -131
l0 -86 -61 -7 c-34 -3 -90 -6 -124 -6 l-62 0 -41 114 c-23 63 -42 117 -42 120
0 10 16 7 105 -15z m-76 -273 c5 -13 16 -26 24 -29 18 -7 57 19 57 39 0 11 26
14 149 14 l148 0 7 -51 c4 -28 4 -54 1 -58 -4 -3 -98 -8 -210 -9 l-203 -4 -4
57 c-1 31 -1 59 1 61 10 10 22 2 30 -20z m541 9 c-13 -16 -130 -22 -130 -7 0
18 15 22 78 22 56 0 63 -2 52 -15z m-627 -132 l-18 -27 -3 63 c-2 50 1 68 15
83 18 20 18 19 21 -35 2 -41 -2 -64 -15 -84z m447 -12 c0 -28 -36 -34 -235
-38 -113 -3 -205 -1 -205 3 0 4 7 16 17 26 15 16 35 18 220 18 111 0 203 -4
203 -9z"/>
<path d="M317 1350 c-16 -5 -40 -21 -53 -35 -23 -25 -25 -34 -23 -117 3 -85 4
-90 26 -99 14 -5 44 -9 69 -9 l44 0 2 -67 c2 -68 2 -96 -1 -225 l-1 -68 -30 0
c-37 0 -38 -15 -5 -60 14 -19 25 -38 25 -42 0 -5 -34 16 -75 47 -68 50 -79 55
-127 55 l-53 0 120 -87 119 -88 -101 -6 c-70 -3 -108 -10 -124 -22 -61 -42
-59 -37 -59 -151 l0 -106 194 0 194 0 21 33 c21 34 29 62 30 104 1 19 7 22 48
25 42 3 50 7 75 43 25 35 30 54 35 130 10 155 8 724 -3 735 -12 12 -310 21
-347 10z m235 -36 l76 -6 7 -35 c8 -44 6 -532 -3 -638 l-7 -80 -57 -3 -58 -3
-1 133 c-3 322 -8 499 -14 508 -3 5 -40 10 -82 10 -64 0 -74 2 -69 16 3 9 6
38 6 65 l0 49 63 -5 c34 -2 96 -7 139 -11z m-238 -56 c-5 -55 -21 -98 -36 -98
-4 0 -8 27 -8 59 0 51 3 62 22 75 12 9 23 16 24 16 2 0 0 -24 -2 -52z m96
-113 c-24 -25 -46 -30 -88 -19 -22 6 -22 8 -6 25 12 14 31 19 67 19 l50 0 -23
-25z m61 -285 c4 -144 3 -155 -15 -158 -10 -2 -22 0 -27 5 -5 5 -10 96 -10
202 0 173 1 195 18 213 18 20 18 19 24 -43 4 -35 8 -134 10 -219z m-41 -365
c13 -14 29 -25 37 -25 14 0 18 -57 5 -75 -4 -6 -62 -9 -149 -7 l-143 3 0 58
c0 32 3 61 7 64 3 4 54 7 113 7 101 0 108 -1 130 -25z m178 10 c2 -2 -1 -13
-8 -24 -8 -16 -20 -21 -50 -21 -42 0 -43 1 -33 39 5 21 10 22 47 17 22 -4 42
-9 44 -11z m-458 -73 c0 -48 -4 -62 -23 -80 l-24 -22 -2 61 c-2 46 2 66 15 80
27 30 34 23 34 -39z m232 -82 c77 0 78 0 67 -23 -10 -22 -15 -23 -165 -25 -85
-2 -154 0 -154 4 0 4 10 19 23 32 20 22 27 24 87 18 36 -3 100 -6 142 -6z"/>
</g>
</svg>
