<svg xmlns="http://www.w3.org/2000/svg" xmlns:xlink="http://www.w3.org/1999/xlink" viewBox="0 0 300.01 76.47"><defs><style>.cls-1{fill:#00ae42;}.cls-2{fill:#a7a8a9;}.cls-3{fill:url(#linear-gradient);}.cls-4{fill:#222;}</style><linearGradient id="linear-gradient" x1="39.82" y1="418.31" x2="39.82" y2="418.19" gradientTransform="matrix(68.23, 0, 0, -259.72, -2690.89, 108641.13)" gradientUnits="userSpaceOnUse"><stop offset="0" stop-color="#00ae42" stop-opacity="0"/><stop offset="1" stop-color="#205a41" stop-opacity="0.2"/></linearGradient></defs><title>logo-cmyk</title><g id="Layer_2" data-name="Layer 2"><g id="Layer_1-2" data-name="Layer 1"><g id="logo"><g id="Colors"><g id="Corp-Colors-_Primary_" data-name="Corp-Colors-(Primary)"><g id="Group-5"><g id="Group-4"><g id="MongoDB-Leaf-Copy-2"><path id="Shape" class="cls-1" d="M33.72,30.44c-4-17.78-13.55-23.62-14.57-25.85A27.41,27.41,0,0,1,16.89.21L16.81,0a4.74,4.74,0,0,1-1.67,3.77C12.84,5.58,1,15.5,0,35.7c-.9,18.83,13.61,30.05,15.57,31.49l.22.15c.57-1.28,1.13-5,1.53-10,.09,4.06.67,8.42,2.69,9.34l.12-.08a24.46,24.46,0,0,0,2.5-2C27.58,60,36.86,48.8,33.72,30.44Z"/><path id="Shape-2" data-name="Shape" class="cls-2" d="M17.37,57.33c-.4,5-1,8.71-1.53,10,0,0,.62,4.43,1.05,9.13h1.53a90.48,90.48,0,0,1,1.63-9.79C18,65.76,17.46,61.4,17.37,57.33Z"/><path id="Shape-3" data-name="Shape" class="cls-1" d="M33.72,30.44c-4-17.78-13.55-23.62-14.57-25.85A27.41,27.41,0,0,1,16.89.21c1,3.72.79,33.45.9,37a191.78,191.78,0,0,1-.43,20.12c.09,4.06.67,8.42,2.68,9.35l.12-.08a27.37,27.37,0,0,0,2.51-2l.09-.08C27.58,60,36.86,48.8,33.72,30.44Z"/><path id="Shape-4" data-name="Shape" class="cls-3" d="M33.72,30.44c-4-17.78-13.55-23.62-14.57-25.85A27.41,27.41,0,0,1,16.89.21c1,3.72.79,33.45.9,37a191.78,191.78,0,0,1-.43,20.12c.09,4.06.67,8.42,2.68,9.35l.12-.08a27.37,27.37,0,0,0,2.51-2l.09-.08C27.58,60,36.86,48.8,33.72,30.44Z"/></g></g></g></g></g><path class="cls-4" d="M216.07,24.81c1,0,4.78.18,6.54.18,3.28,0,5.57-.18,11.72-.18,5.16,0,9.5,1.39,12.6,4.06a16.87,16.87,0,0,1,5.74,13.27c0,7.82-3.57,12.34-7.14,14.89s-8.21,4.17-14.83,4.17c-3.52,0-9.56-.11-14.59-.17H216c-.24-.46.43-2.27.84-2.32a7.47,7.47,0,0,0,2.36-.46c1.07-.44,1.32-1,1.44-2.9.17-3.59.11-7.88.11-12.75,0-3.47.06-10.25,0-12.4-.18-1.79-.94-2.26-2.47-2.6a31.7,31.7,0,0,0-3.28-.53,5.91,5.91,0,0,1,1.08-2.26M227.77,57c1.23,1,3.69,1.39,5.86,1.39a11.41,11.41,0,0,0,8.26-3c2.76-2.49,4.63-6.32,4.63-12.4,0-5.86-2.23-10.61-6.8-13.39-2.58-1.62-5.91-2.26-9.72-2.26a8.11,8.11,0,0,0-2.88.35,1.52,1.52,0,0,0-.52.81c-.12,1-.12,9-.12,13.68s0,11.53.12,12.34A3.57,3.57,0,0,0,227.77,57"/><path class="cls-4" d="M256.63,24.92c.53,0,2.09.17,6.07.17,3.75,0,6.8-.12,10.43-.12,4.51,0,10.73,1.63,10.73,8.35,0,3.3-2.35,6-5.39,7.24-.18.06-.18.18,0,.23,4.33,1.1,8.14,3.77,8.14,8.87s-3.1,8.11-7.62,10.08a24.18,24.18,0,0,1-9.61,1.62c-2.63,0-9.7-.28-13.63-.23-.41-.17.38-2,.73-2.31a11.13,11.13,0,0,0,2.66-.42c1.4-.35,1.57-.8,1.74-2.89.12-1.79.12-8.23.12-12.8,0-6.26.06-10.49,0-12.58-.06-1.62-.64-2.14-1.76-2.43-.87-.18-2.34-.35-3.51-.52-.29-.29.61-2,.9-2.26m23.89,26c0-5.09-3.75-8-10.61-8a25.81,25.81,0,0,0-3,.06c-.17,0-.35.17-.35.29,0,3.65-.06,9.5.12,11.82a3.89,3.89,0,0,0,1.7,2.78,11.75,11.75,0,0,0,4.51.64c4,0,7.62-2.26,7.62-7.6M267.21,27.76c-.23,0-.52.63-.52.92-.06,2.09-.12,7.54-.12,11.3a.38.38,0,0,0,.29.29c.77.06,2.64.12,4.22.12a10,10,0,0,0,4.22-.64,5.48,5.48,0,0,0,2.76-5.16c0-5-3.52-7-8.74-7a15.18,15.18,0,0,0-2.11.12"/><path class="cls-4" d="M46.44,61.18A2.52,2.52,0,0,1,46.26,60a1.51,1.51,0,0,1,.18-.78,21.84,21.84,0,0,0,2.25-.46c1-.26,1.43-.82,1.49-2.15.17-3.12.18-9,.12-13.1V43.4a1.65,1.65,0,0,0-.55-1.48,11.63,11.63,0,0,0-3.11-1.36c-.49-.15-.76-.41-.74-.71s.32-.66,1-.78a37.6,37.6,0,0,0,7.89-2,1.1,1.1,0,0,1,.24.83c0,.18,0,.37-.05.57,0,.58-.1,1.24-.1,1.9a.43.43,0,0,0,.43.38.39.39,0,0,0,.3-.13C58.9,38,61.88,37,63.41,37c2.52,0,4.47,1.21,6,3.68a.42.42,0,0,0,.34.2.4.4,0,0,0,.32-.17C73.12,38.43,76.15,37,78.18,37c4.79,0,7.66,3.59,7.66,9.61,0,1.73,0,3.92,0,6,0,1.8,0,3.48,0,4.64a1.59,1.59,0,0,0,1,1.22,12.2,12.2,0,0,0,3,.74h0a4.49,4.49,0,0,1-.3,2c-.32,0-.76,0-1.31,0-1-.06-2.36-.12-4-.12-3.19,0-4.85.06-6.44.16a4.94,4.94,0,0,1,0-2,17.85,17.85,0,0,0,2-.45c1-.34,1.3-.8,1.36-2.15,0-1,.21-9.39-.12-11.39a5.09,5.09,0,0,0-5.28-4.51,9.35,9.35,0,0,0-5.28,2,.8.8,0,0,0-.19.5v0a21.6,21.6,0,0,1,.23,4.25c0,1.09,0,2.24,0,3.38,0,2.33,0,4.53,0,6.18a1.56,1.56,0,0,0,1.23,1.62l.77.18c.46.11.94.23,1.64.34a3.1,3.1,0,0,1,0,1.46,1.2,1.2,0,0,1-.21.5c-1.77-.06-3.59-.12-6.21-.12-.8,0-2.1,0-3.24.07-.93,0-1.81,0-2.31,0a2.37,2.37,0,0,1-.17-1,1.77,1.77,0,0,1,.18-.94l.7-.13c.62-.11,1.15-.21,1.66-.33.87-.27,1.19-.75,1.26-1.85.17-2.58.3-10-.06-11.87-.63-3-2.33-4.5-5.05-4.5a9.47,9.47,0,0,0-5.28,2,1.62,1.62,0,0,0-.48,1.19c0,.89,0,1.94,0,3.07,0,3.73,0,8.37.07,10.38a1.64,1.64,0,0,0,1.43,1.63c.26.07.7.14,1.21.23l.94.16a4,4,0,0,1-.16,2c-.51,0-1.13,0-1.85-.07-1.1,0-2.46-.1-4-.1-1.83,0-3.11.06-4.13.1-.69,0-1.28.07-1.88.07"/><path class="cls-4" d="M106.2,61.7c-8.8,0-11.94-6.46-11.94-12.5a11.18,11.18,0,0,1,5.13-9.81A15.68,15.68,0,0,1,107.32,37c6.72,0,11.41,4.83,11.41,11.75,0,4.71-1.88,8.42-5.42,10.74a15.38,15.38,0,0,1-7.11,2.17m-.94-22.19a5.06,5.06,0,0,0-2.8.78c-2,1.24-3.07,3.71-3.07,7.34,0,6.8,3.4,11.55,8.28,11.55a5.2,5.2,0,0,0,3.58-1.26c1.5-1.23,2.29-3.72,2.29-7.22,0-6.69-3.32-11.19-8.28-11.19"/><path class="cls-4" d="M195.84,61.7c-8.8,0-11.94-6.46-11.94-12.5A11.18,11.18,0,0,1,189,39.39,15.62,15.62,0,0,1,197,37c6.72,0,11.41,4.83,11.41,11.75,0,4.71-1.88,8.42-5.42,10.74a15.38,15.38,0,0,1-7.11,2.17m-.93-22.19a5.07,5.07,0,0,0-2.81.78c-2,1.24-3.07,3.71-3.07,7.34,0,6.8,3.4,11.55,8.28,11.55a5.16,5.16,0,0,0,3.58-1.27c1.5-1.22,2.29-3.71,2.29-7.21,0-6.69-3.32-11.19-8.27-11.19"/><path class="cls-4" d="M165.26,75.61a11.39,11.39,0,0,1-7.38-2.16,7,7,0,0,1-2.74-5.13,4,4,0,0,1,1-2.61A27.68,27.68,0,0,1,161,61.89a.23.23,0,0,0,.15-.23.24.24,0,0,0-.18-.24,5.06,5.06,0,0,1-3.39-3.29.83.83,0,0,0,0-.13.76.76,0,0,1,.3-.94c.34-.25.89-.57,1.47-.91a20.66,20.66,0,0,0,2.36-1.54.37.37,0,0,0,.1-.32.42.42,0,0,0-.2-.28c-3.6-1.21-5.41-3.88-5.41-7.94a7.9,7.9,0,0,1,3.32-6.51A15.12,15.12,0,0,1,166.88,37H167a15.25,15.25,0,0,1,5.66,1.27,9.09,9.09,0,0,0,3.36.53,4.56,4.56,0,0,0,3.62-1.36,3,3,0,0,1,.19,1,3.85,3.85,0,0,1-.65,2.38,2.93,2.93,0,0,1-2.25,1h-.26a7.13,7.13,0,0,1-1.36-.23l-.23.08c-.07.1,0,.22,0,.37a.36.36,0,0,1,0,.09,15.62,15.62,0,0,1,.32,2.22c0,4.26-1.68,6.12-3.5,7.5a12,12,0,0,1-6,2.34h0l-.7.05-.68.06h-.05c-.4.11-1.43.6-1.43,1.51s.47,1.7,2.7,1.87l1.44.1c2.94.21,6.61.46,8.34,1.05a5.78,5.78,0,0,1,3.86,5.56c0,3.83-2.72,7.42-7.28,9.62a15.8,15.8,0,0,1-6.88,1.55m-.35-13.45a4.43,4.43,0,0,0-2.2.55c-2.15,1.38-3.15,2.75-3.15,4.34a4.62,4.62,0,0,0,1.83,3.73,9.24,9.24,0,0,0,6.22,1.9c5.26,0,7.62-2.83,7.62-5.63a4,4,0,0,0-3-4,23.33,23.33,0,0,0-7.32-.89m.35-22.88c-2.71,0-4.47,2.14-4.47,5.46S162.3,52,166.55,52a4.13,4.13,0,0,0,2.71-1,6.78,6.78,0,0,0,1.63-4.77c0-4.32-2.1-6.9-5.63-6.9"/><path class="cls-4" d="M151.8,59.14a10.67,10.67,0,0,1-3.34-.87,1.61,1.61,0,0,1-.41-.81c-.12-1.8-.12-7-.12-10.43a12.48,12.48,0,0,0-1.64-7,7,7,0,0,0-6-3.13c-2.29,0-5.34,1.57-7.86,3.71-.06.06-.44.43-.43-.14s.09-1.73.15-2.46a1.29,1.29,0,0,0-.39-1.08,36.2,36.2,0,0,1-8,2.09c-1.24.24-1.56,1.44-.23,1.85h0a11.46,11.46,0,0,1,3,1.33,1.59,1.59,0,0,1,.46,1.45c.06,3.88.06,9.85-.11,13.09-.06,1.28-.41,1.74-1.35,2l.08,0a17.74,17.74,0,0,1-2.16.41,3.1,3.1,0,0,0,0,2.32c.58,0,3.57-.18,6-.18,3.4,0,5.16.18,6,.18a3.22,3.22,0,0,0,.23-2.32,13,13,0,0,1-2.4-.35c-.94-.23-1.17-.69-1.23-1.74-.12-2.72-.12-8.52-.12-12.46a2.25,2.25,0,0,1,.65-1.91,7.72,7.72,0,0,1,4.8-1.74,5.26,5.26,0,0,1,3.58,1.22,5,5,0,0,1,1.64,3.25c.23,2.2.17,6.6.17,10.43,0,2.08-.17,2.6-.93,2.84a10,10,0,0,1-2.41.46,3.2,3.2,0,0,0,0,2.32c1.53,0,3.28-.18,5.86-.18,3.23,0,5.28.18,6.1.18a3.2,3.2,0,0,0,.23-2.32"/><path class="cls-4" d="M294.46,56.37h1c.81,0,1.11-.28,1.11-1s-.29-1-1.2-1h-.91v2Zm2.13,3.14L295.41,57h-1v2.54h-.69V53.75h1.7c1.27,0,1.79.57,1.79,1.61a1.4,1.4,0,0,1-1.13,1.54l1.21,2.61Zm-1.12-7a4.14,4.14,0,1,0,4.12,4.15,4.07,4.07,0,0,0-4.12-4.15Zm0,8.69A4.55,4.55,0,1,1,300,56.57a4.5,4.5,0,0,1-4.55,4.61Z"/></g></g></g></svg>