<svg width="27" height="52" viewBox="0 0 27 52" xmlns="http://www.w3.org/2000/svg"><title>blue squashed scribble</title><path d="M21.908 17.738c-1.87-26.658-1.45-10.47.79 11.996.09.886.016-2.134-.312-2.645l-1.396-2.847C17.663 19.047 14.426 13.29 10.9 9.15c-1.126-1.324 1.953 4.046 2.742 6.466.57 1.75.902 3.848 1.272 5.845.95 5.11 1.936 10.214 2.682 15.458.508 3.572 1.45 7.534 1.064 10.89-.224 1.946-.87-4.443-1.7-5.36-4.228-4.66-8.77-6.472-13.03-10.88-.57-.588 1.11-.58 1.668-.872" stroke="#2D91C7" stroke-width="7" fill="none" fill-rule="evenodd"/></svg>