<svg width="52" height="55" viewBox="0 0 52 55" xmlns="http://www.w3.org/2000/svg"><title>blue scribble</title><path d="M34.113 4.013c26.712 0 10.54 1.762-12.016.125-.89-.065 2.126-.407 2.66.312l2.935 2.952c5.413 7.306 11.38 14.294 15.755 22.274 1.398 2.55-4.172-4.115-6.64-5.642-1.783-1.104-3.9-1.56-5.916-2.128-5.16-1.455-10.317-3.007-15.6-3.94-3.595-.634-7.61-2.274-10.93-.74-1.926.888 4.49 1.374 5.462 3.267 4.943 9.62 7.068 20.51 11.76 30.258.627 1.3.503-2.843.754-4.265" stroke="#2D91C7" stroke-width="7" fill="none"/></svg>