<svg width="52" height="40" viewBox="0 0 52 40" xmlns="http://www.w3.org/2000/svg"><title>blue thin scribble</title><path d="M49.35 24.013c-.455 26.712-1.942 10.51.078-12.018.08-.89.372 2.133-.357 2.654l-3 2.884c-7.4 5.29-14.49 11.138-22.542 15.376-2.576 1.355 4.185-4.1 5.754-6.543 1.134-1.765 1.626-3.873 2.23-5.88 1.542-5.138 3.182-10.268 4.203-15.533.696-3.587 2.404-7.575.928-10.92-.857-1.94-1.45 4.466-3.36 5.407-9.706 4.78-20.632 6.72-30.46 11.246-1.31.604 2.838.55 4.256.826" stroke="#2D91C7" stroke-width="4" fill="none" fill-rule="evenodd"/></svg>