<svg width="74" height="92" viewBox="0 0 74 92" xmlns="http://www.w3.org/2000/svg"><title>yellow big scribble</title><path d="M21.636 25.07c3.495-6.128 23.01-17.602 18.28-11.245-9.563 12.858-19.102 25.8-29.888 37.663-1.014 1.116-1.125-3.275-.258-4.507 5.104-7.247 11.12-13.88 17.527-20.017 8.32-7.97 17.475-15.042 26.525-22.18.646-.51 1.692-1.06 2.39-.626.6.37.34 1.49 0 2.108-5.895 10.786-11.956 21.498-18.57 31.864-10.72 16.803-22.09 33.188-33.4 49.606-.98 1.42 1.255-3.29 2.39-4.59C14.48 74.17 22.407 65.22 31.076 57.03c11.192-10.573 22.32-21.422 35.054-30.094 3.15-2.146-3.377 6.846-5.525 9.987-11.283 16.5-24.286 31.85-34.734 48.884-3.85 6.278 9.52-11.288 14.82-16.413 8.643-8.355 14.998-22.48 26.95-23.97 8.755-1.09-9.334 14.904-14 22.356" stroke="#F8E71C" stroke-width="7" fill="none" fill-rule="evenodd" opacity=".763"/></svg>