<svg width="30" height="31" viewBox="0 0 30 31" xmlns="http://www.w3.org/2000/svg"><title>yellow little scribble blob</title><path d="M9.88 9.77c1.164-1.68 7.67-4.82 6.092-3.08-3.188 3.52-6.367 7.065-9.963 10.313-.34.305-.376-.897-.087-1.234 1.702-1.986 3.707-3.802 5.843-5.483 2.773-2.182 5.825-4.118 8.84-6.073.217-.14.565-.29.798-.17.2.1.113.407 0 .576-1.965 2.953-3.985 5.887-6.19 8.725-3.573 4.6-7.364 9.087-11.133 13.583-.326.39.42-.9.798-1.257 2.615-2.457 5.257-4.907 8.147-7.15 3.73-2.895 7.44-5.866 11.685-8.24 1.05-.587-1.126 1.874-1.842 2.735-3.76 4.517-8.095 8.72-11.578 13.384-1.283 1.718 3.173-3.09 4.94-4.494 2.88-2.288 5-6.155 8.984-6.563 2.918-.3-3.112 4.08-4.668 6.12" stroke="#F8E71C" stroke-width="7" fill="none" fill-rule="evenodd" opacity=".763"/></svg>